<svg width="620" height="402" viewBox="0 0 620 402" fill="none" xmlns="http://www.w3.org/2000/svg">
<g clip-path="url(#clip0_9_4)">
<g filter="url(#filter0_d_9_4)">
<path d="M309 28.003C325.164 28.0034 340.83 27.8705 356.493 28.0432C371.122 28.2045 385.753 28.5616 400.375 29.0704C414.306 29.5551 428.255 29.9827 442.144 31.0876C464.255 32.8465 486.598 33.0365 508.235 38.6449C536.193 45.892 552.046 64.4957 558.066 92.4036C562.314 112.095 564.248 132.009 564.966 152.058C565.841 176.474 567.204 200.919 566.736 225.321C566.311 247.489 563.663 269.613 562.095 291.763C561.047 306.578 558.781 321.211 553.045 334.927C545.205 353.672 531.051 366.642 511.552 371.542C496.41 375.347 480.519 376.679 464.867 377.832C442.196 379.501 419.446 380.182 396.719 380.97C379.434 381.569 362.133 381.879 344.838 381.962C313.343 382.113 281.845 382.241 250.353 381.912C229.924 381.698 209.456 381.323 189.094 379.814C165.999 378.104 142.562 378.084 120.069 371.861C94.0715 364.668 77.8481 347.032 72.2649 320.83C68.9643 305.34 67.6521 289.388 66.083 273.581C64.8716 261.378 64.445 249.083 64.0414 236.817C63.5055 220.529 62.672 204.21 63.1674 187.94C63.798 167.237 65.2126 146.531 67.0945 125.9C68.3105 112.569 70.2304 99.2056 73.1402 86.1474C78.7239 61.0893 101.658 40.3899 127.051 37.0312C143.129 34.9045 159.294 33.2774 175.469 32.0958C191.191 30.9473 206.971 30.4667 222.735 30.0238C251.32 29.2206 279.911 28.6631 309 28.003ZM207.523 33.9973C195.927 34.661 184.314 35.1133 172.739 36.0428C158.868 37.1569 145.006 38.4768 131.182 40.0775C116.141 41.8191 103.151 48.1872 92.564 59.0265C81.8139 70.0322 75.972 83.7526 74.2801 98.6788C71.2569 125.349 68.1633 152.111 67.35 178.903C66.5036 206.788 67.6255 234.793 69.2105 262.67C70.308 281.974 72.5304 301.37 76.2689 320.327C81.0682 344.664 96.3861 362.028 120.458 367.553C142.278 372.562 165.027 373.81 187.447 375.824C203.806 377.293 220.295 377.888 236.726 377.875C292.525 377.831 348.325 377.467 404.122 376.947C419.723 376.801 435.342 376.055 450.906 374.931C468.253 373.677 485.691 372.567 502.828 369.786C525.499 366.107 542.071 352.92 549.974 331.37C554.424 319.236 556.501 305.963 557.845 293.016C560.274 269.609 562.269 246.08 562.741 222.567C563.227 198.326 562.251 174.011 560.834 149.792C559.79 131.962 557.496 114.161 554.888 96.4757C550.408 66.095 529.618 44.7179 500.299 41.0379C475.488 37.9239 450.524 35.8069 425.567 34.164C404.355 32.7676 383.058 32.1818 361.796 32.1219C327.333 32.0249 292.867 32.5939 258.403 32.9987C241.772 33.1941 225.145 33.6557 207.523 33.9973Z" fill="white"/>
</g>
<g filter="url(#filter1_d_9_4)">
<path d="M208.019 33.997C225.145 33.6557 241.772 33.194 258.403 32.9987C292.867 32.5939 327.333 32.0249 361.796 32.1219C383.058 32.1817 404.355 32.7676 425.567 34.164C450.524 35.8068 475.488 37.9239 500.299 41.0379C529.618 44.7179 550.408 66.0949 554.888 96.4757C557.496 114.161 559.79 131.962 560.834 149.792C562.251 174.011 563.227 198.326 562.741 222.567C562.269 246.08 560.274 269.609 557.845 293.016C556.501 305.963 554.424 319.236 549.974 331.37C542.071 352.92 525.499 366.107 502.828 369.786C485.691 372.567 468.253 373.677 450.906 374.931C435.342 376.055 419.723 376.801 404.121 376.947C348.324 377.467 292.525 377.831 236.725 377.875C220.295 377.888 203.806 377.293 187.447 375.824C165.027 373.81 142.278 372.562 120.458 367.553C96.3861 362.028 81.0681 344.664 76.2688 320.327C72.5304 301.37 70.308 281.974 69.2104 262.67C67.6254 234.793 66.5036 206.788 67.35 178.903C68.1632 152.111 71.2568 125.349 74.28 98.6788C75.9719 83.7526 81.8139 70.0322 92.5639 59.0265C103.151 48.1872 116.141 41.8191 131.182 40.0774C145.005 38.4768 158.868 37.1568 172.739 36.0428C184.314 35.1132 195.927 34.661 208.019 33.997ZM73.4882 118.075C73.0091 122.186 72.3287 126.286 72.0853 130.411C70.9911 148.962 69.2447 167.517 69.1924 186.075C69.1185 212.322 69.6313 238.615 71.2269 264.807C72.352 283.277 74.6075 301.834 78.311 319.953C83.1718 343.734 98.3657 359.398 121.816 366.043C144.171 372.378 167.457 371.899 190.375 373.821C207.569 375.263 224.877 375.436 242.141 375.937C259.263 376.435 276.395 376.937 293.522 376.898C319.481 376.84 345.44 376.368 371.397 375.962C379.863 375.829 388.325 375.4 396.786 375.025C418.843 374.046 440.914 373.285 462.948 371.917C475.995 371.108 489.145 370.184 501.96 367.778C527.71 362.942 544.243 347.46 551.02 321.919C556.111 302.732 557.446 283.011 558.868 263.36C560.125 245.981 561.039 228.516 560.824 211.105C560.53 187.208 558.999 163.326 558.053 139.435C557.375 122.316 555.319 105.382 550.942 88.804C544.878 65.8339 530.622 50.433 507.367 44.8234C495.183 41.8844 482.581 40.3638 470.076 39.1544C454.074 37.6068 437.99 36.7567 421.921 36.081C400.012 35.1597 378.081 34.0542 356.165 34.1566C314.082 34.3534 272.002 35.3139 229.922 36.0267C219.292 36.2068 208.644 36.329 198.041 37.0355C176.215 38.4898 154.368 39.8833 132.613 42.1138C108.859 44.5492 91.152 56.9916 82.2661 79.0387C77.457 90.9706 76.4709 104.443 73.4882 118.075Z" fill="white"/>
</g>
<g filter="url(#filter2_d_9_4)">
<path d="M73.6242 117.648C76.4709 104.443 77.457 90.9706 82.2661 79.0387C91.152 56.9917 108.859 44.5492 132.613 42.1138C154.368 39.8833 176.215 38.4898 198.041 37.0355C208.644 36.3291 219.292 36.2068 229.922 36.0267C272.002 35.3139 314.082 34.3534 356.165 34.1567C378.081 34.0542 400.012 35.1597 421.921 36.081C437.99 36.7567 454.074 37.6068 470.076 39.1544C482.581 40.3638 495.183 41.8845 507.367 44.8234C530.622 50.433 544.878 65.8339 550.942 88.804C555.319 105.382 557.375 122.316 558.053 139.435C558.999 163.326 560.53 187.208 560.824 211.105C561.039 228.516 560.125 245.981 558.868 263.36C557.446 283.011 556.111 302.732 551.02 321.919C544.243 347.46 527.71 362.942 501.96 367.778C489.145 370.184 475.995 371.108 462.948 371.918C440.914 373.285 418.843 374.046 396.786 375.025C388.325 375.4 379.863 375.829 371.397 375.962C345.44 376.368 319.481 376.84 293.522 376.898C276.395 376.937 259.263 376.435 242.141 375.937C224.877 375.436 207.569 375.263 190.375 373.821C167.457 371.899 144.171 372.378 121.816 366.043C98.3657 359.398 83.1718 343.734 78.311 319.953C74.6075 301.834 72.352 283.277 71.2269 264.807C69.6314 238.615 69.1185 212.322 69.1924 186.075C69.2447 167.517 70.9911 148.962 72.0853 130.411C72.3287 126.286 73.0091 122.186 73.6242 117.648ZM264.782 38.0181C262.82 38.3399 260.865 38.878 258.894 38.951C230.506 40.0023 202.102 40.7223 173.731 42.1098C159.851 42.7886 145.978 44.2865 132.194 46.113C109.344 49.1411 92.8991 61.5786 84.873 83.0457C80.8744 93.7406 79.2237 105.57 78.1301 117.041C75.8494 140.962 73.7422 164.967 73.2522 188.972C72.7608 213.042 73.7511 237.188 75.1749 261.236C76.24 279.227 78.3601 297.221 81.1995 315.024C85.4725 341.817 103.321 359.741 130.119 363.877C148.917 366.778 167.939 368.466 186.923 369.86C204.47 371.149 222.097 371.411 239.694 371.966C254.32 372.428 268.954 372.963 283.584 372.921C307.215 372.854 330.845 372.38 354.475 372.003C371.272 371.734 388.069 371.394 404.864 370.985C413.164 370.782 421.473 370.565 429.752 369.98C451.74 368.428 473.718 366.729 495.691 364.984C521.083 362.967 541.183 346.025 547.04 321.168C549.314 311.52 551.035 301.655 551.95 291.791C553.986 269.847 556.129 247.864 556.806 225.853C557.716 196.282 557.374 166.65 553.938 137.2C552.059 121.097 550.336 104.867 546.767 89.0955C541.972 67.9081 528.266 53.1825 506.946 48.8713C486.247 44.6859 464.972 43.1907 443.891 41.1163C430.859 39.834 417.722 39.4997 404.621 39.0599C388.831 38.5298 373.031 38.1264 357.233 38.0466C326.734 37.8925 296.233 38.0039 264.782 38.0181Z" fill="white"/>
</g>
</g>
<defs>
<filter id="filter0_d_9_4" x="41.016" y="9.95453" width="547.815" height="398.164" filterUnits="userSpaceOnUse" color-interpolation-filters="sRGB">
<feFlood flood-opacity="0" result="BackgroundImageFix"/>
<feColorMatrix in="SourceAlpha" type="matrix" values="0 0 0 0 0 0 0 0 0 0 0 0 0 0 0 0 0 0 127 0" result="hardAlpha"/>
<feOffset dy="4"/>
<feGaussianBlur stdDeviation="11"/>
<feComposite in2="hardAlpha" operator="out"/>
<feColorMatrix type="matrix" values="0 0 0 0 1 0 0 0 0 1 0 0 0 0 1 0 0 0 1 0"/>
<feBlend mode="normal" in2="BackgroundImageFix" result="effect1_dropShadow_9_4"/>
<feBlend mode="normal" in="SourceGraphic" in2="effect1_dropShadow_9_4" result="shape"/>
</filter>
<filter id="filter1_d_9_4" x="45.0598" y="14.111" width="539.808" height="389.764" filterUnits="userSpaceOnUse" color-interpolation-filters="sRGB">
<feFlood flood-opacity="0" result="BackgroundImageFix"/>
<feColorMatrix in="SourceAlpha" type="matrix" values="0 0 0 0 0 0 0 0 0 0 0 0 0 0 0 0 0 0 127 0" result="hardAlpha"/>
<feOffset dy="4"/>
<feGaussianBlur stdDeviation="11"/>
<feComposite in2="hardAlpha" operator="out"/>
<feColorMatrix type="matrix" values="0 0 0 0 1 0 0 0 0 1 0 0 0 0 1 0 0 0 1 0"/>
<feBlend mode="normal" in2="BackgroundImageFix" result="effect1_dropShadow_9_4"/>
<feBlend mode="normal" in="SourceGraphic" in2="effect1_dropShadow_9_4" result="shape"/>
</filter>
<filter id="filter2_d_9_4" x="47.1855" y="16.15" width="535.67" height="386.75" filterUnits="userSpaceOnUse" color-interpolation-filters="sRGB">
<feFlood flood-opacity="0" result="BackgroundImageFix"/>
<feColorMatrix in="SourceAlpha" type="matrix" values="0 0 0 0 0 0 0 0 0 0 0 0 0 0 0 0 0 0 127 0" result="hardAlpha"/>
<feOffset dy="4"/>
<feGaussianBlur stdDeviation="11"/>
<feComposite in2="hardAlpha" operator="out"/>
<feColorMatrix type="matrix" values="0 0 0 0 1 0 0 0 0 1 0 0 0 0 1 0 0 0 1 0"/>
<feBlend mode="normal" in2="BackgroundImageFix" result="effect1_dropShadow_9_4"/>
<feBlend mode="normal" in="SourceGraphic" in2="effect1_dropShadow_9_4" result="shape"/>
</filter>
<clipPath id="clip0_9_4">
<rect width="620" height="402" fill="white"/>
</clipPath>
</defs>
</svg>
